<?xml version="1.0"?>
<svg width="160" height="100" xmlns="http://www.w3.org/2000/svg" viewBox="0 0 160 100">
 <title/>

 <g>
  <title>background</title>
  <rect fill="none" id="canvas_background" height="402" width="582" y="-1" x="-1"/>
 </g>
 <g>
  <title>Layer 1</title>
  <g id="Page-1" fill-rule="evenodd" fill="none">
   <g id="american-express">
    <path d="m159.998993,-0.3333l-160.332303,0.334l0.16666,99.998293l160.165643,0.501015l0,-100.833308z" stroke="null" id="Rectangle-1" fill="#306FC5"/>
    <path stroke="null" id="Shape" fill="#FFFFFF" d="m14.42959,36.62534l-3.079538,-7.550999l-3.06195,7.550999l6.141488,0zm67.841887,-3.006809c-0.618294,0.37764 -1.349564,0.390209 -2.225624,0.390209l-5.465851,0l0,-4.207119l5.54023,0c0.784065,0 1.602219,0.035419 2.133652,0.34164c0.583656,0.27594 0.944748,0.863249 0.944748,1.674509c0,0.827829 -0.343498,1.493971 -0.927155,1.80076c0,0 0.583656,-0.306789 0,0l0,0l0,0zm38.99276,3.006809l-3.113594,-7.550999l-3.096588,7.550999l6.210182,0l0,0l0,0l0,0zm-72.684891,8.173149l-4.612499,0l-0.017036,-14.834618l-6.524158,14.834618l-3.950489,0l-6.541178,-14.847759l0,14.847759l-9.151196,0l-1.728836,-4.224838l-9.368071,0l-1.746438,4.224838l-4.886728,0l8.05711,-18.941189l6.684834,0l7.652298,17.933399l0,-17.933399l7.34343,0l5.888258,12.849319l5.409077,-12.849319l7.491047,0l0,18.941189l0,0l0.000576,0l0,0zm18.38356,0l-15.030361,0l0,-18.941189l15.030361,0l0,3.944321l-10.530846,0l0,3.414139l10.278191,0l0,3.882622l-10.278191,0l0,3.782639l10.530846,0l0,3.917469l0,0l0,0l0,0zm21.192291,-13.839968c0,3.019938 -2.003059,4.580179 -3.170387,5.048658c0.984497,0.37706 1.825363,1.043209 2.225632,1.5951c0.63533,0.942081 0.744904,1.783619 0.744904,3.475269l0,3.72094l-4.538124,0l-0.017036,-2.388649c0,-1.139759 0.108444,-2.778851 -0.710266,-3.690079c-0.657471,-0.666149 -1.659561,-0.810692 -3.279396,-0.810692l-4.829948,0l0,6.88942l-4.498947,0l0,-18.941189l10.348595,0c2.299446,0 3.993645,0.061131 5.448257,0.90724c1.42337,0.846109 2.276718,2.08128 2.276718,4.193981c0,0 0,-2.112701 0,0l0,0l0,0zm7.200371,13.839968l-4.590942,0l0,-18.941189l4.590942,0l0,18.941189l0,0l0,0l0,0zm53.260597,0l-6.375961,0l-8.528351,-14.216459l0,14.216459l-9.163109,0l-1.750984,-4.224838l-9.346497,0l-1.698738,4.224838l-5.264854,0c-2.187027,0 -4.956009,-0.486759 -6.524162,-2.09499c-1.581215,-1.608238 -2.403893,-3.78664 -2.403893,-7.231068c0,-2.80912 0.491669,-5.377161 2.425468,-7.40645c1.454605,-1.51169 3.732475,-2.208681 6.833023,-2.208681l4.355865,0l0,4.05858l-4.264458,0c-1.641975,0 -2.569115,0.245659 -3.462219,1.122049c-0.767044,0.79755 -1.293365,2.305229 -1.293365,4.290531c0,2.029289 0.400848,3.49242 1.237167,4.448219c0.692665,0.749561 1.951393,0.97694 3.135742,0.97694l2.020653,0l6.341347,-14.89575l6.741608,0l7.617661,17.915689l0,-17.915689l6.850616,0l7.90892,13.19153l0,-13.19153l4.608521,0l0,18.940619l0,0l0,0l0,0zm-148.615682,3.720371l7.687499,0l1.73338,-4.20713l3.880654,0l1.728827,4.20713l15.125755,0l0,-3.21648l1.350136,3.23019l7.852152,0l1.35014,-3.278179l0,3.264469l37.590389,0l-0.017593,-6.905991l0.727303,0c0.509277,0.017712 0.658028,0.065132 0.658028,0.91124l0,5.994751l19.441879,0l0,-1.60767c1.568161,0.845539 4.007263,1.60767 7.216827,1.60767l8.179184,0l1.750404,-4.20713l3.880653,0l1.7118,4.20713l15.761642,0l0,-3.996319l2.386871,3.996319l12.630432,0l0,-26.417351l-12.499847,0l0,3.119921l-1.750412,-3.119921l-12.826309,0l0,3.119921l-1.607338,-3.119921l-17.325249,0c-2.900131,0 -5.449387,0.407341 -7.508659,1.54253l0,-1.54253l-11.955933,0l0,1.54253c-1.310394,-1.170038 -3.096008,-1.54253 -5.081474,-1.54253l-43.679642,0l-2.930786,6.823151l-3.009705,-6.823151l-13.758013,0l0,3.119921l-1.511377,-3.119921l-11.73337,0l-5.448816,12.560242l0,13.857109l0.000566,0zm160.039068,13.947941l-8.20018,0c-0.818726,0 -1.362625,0.030849 -1.820831,0.34222c-0.474625,0.306789 -0.657471,0.762119 -0.657471,1.363136c0,0.714714 0.400848,1.20089 0.983948,1.41114c0.47464,0.166252 0.984482,0.214813 1.733948,0.214813l2.438538,0.065697c2.460678,0.061134 4.10321,0.486755 5.104752,1.524826c0.182236,0.144539 0.291809,0.306793 0.417297,0.469048l0,-5.390881zm0,12.490536c-1.092941,1.608231 -3.22261,2.4235 -6.105713,2.4235l-8.689026,0l0,-4.062584l8.653824,0c0.858459,0 1.459152,-0.113693 1.820816,-0.46904c0.3134,-0.293083 0.531982,-0.718712 0.531982,-1.235756c0,-0.55188 -0.218582,-0.990067 -0.549591,-1.252869c-0.326462,-0.289085 -0.801682,-0.420486 -1.58519,-0.420486c-4.224716,-0.144539 -9.495255,0.131401 -9.495255,-5.863922c0,-2.748001 1.733948,-5.640541 6.45546,-5.640541l8.962128,0l0,-3.769489l-8.326797,0c-2.512909,0 -4.338272,0.605579 -5.631073,1.5471l0,-1.5471l-12.316452,0c-1.969574,0 -4.281494,0.491322 -5.375,1.5471l0,-1.5471l-21.993988,0l0,1.5471c-1.750397,-1.270588 -4.703903,-1.5471 -6.067093,-1.5471l-14.507462,0l0,1.5471c-1.384766,-1.34943 -4.464302,-1.5471 -6.341324,-1.5471l-16.236294,0l-3.715435,4.046009l-3.479816,-4.046009l-24.253656,0l0,26.435635l23.797178,0l3.828419,-4.110001l3.606426,4.110001l14.668694,0.013123l0,-6.218697l1.442116,0c1.946289,0.030281 4.24176,-0.048561 6.26696,-0.92952l0,7.134506l12.099014,0l0,-6.889984l0.583656,0c0.744904,0 0.818146,0.030846 0.818146,0.779839l0,6.109581l36.754646,0c2.333496,0 4.772598,-0.601021 6.123306,-1.69165l0,1.69165l11.658432,0c2.426041,0 4.795319,-0.342209 6.597961,-1.218605l0,-4.92469l0,0l0,0l0,0zm-17.947525,-7.568703c0.876053,0.912384 1.345596,2.064133 1.345596,4.014023c0,4.075714 -2.530518,5.97818 -7.068069,5.97818l-8.763405,0l0,-4.062584l8.728188,0c0.853363,0 1.458588,-0.113693 1.83786,-0.46904c0.309433,-0.293083 0.531418,-0.718712 0.531418,-1.235756c0,-0.55188 -0.240158,-0.990067 -0.549026,-1.252869c-0.344055,-0.289085 -0.81871,-0.420486 -1.602219,-0.420486c-4.207687,-0.144539 -9.477089,0.131401 -9.477089,-5.863922c0,-2.748001 1.715782,-5.640541 6.432762,-5.640541l9.02002,0l0,4.03231l-8.253555,0c-0.818146,0 -1.350128,0.030842 -1.802643,0.342213c-0.492813,0.306789 -0.675629,0.762119 -0.675629,1.36314c0,0.714722 0.418427,1.200897 0.984497,1.411125c0.47464,0.16626 0.984482,0.214821 1.750977,0.214821l2.422073,0.065704c2.44252,0.05999 4.11911,0.485039 5.138245,1.523682c0,0 -1.019135,-1.038643 0,0l0,0l0,0zm-40.599533,-1.170044c-0.601822,0.359352 -1.346153,0.390213 -2.221649,0.390213l-5.465851,0l0,-4.255123l5.540222,0c0.801125,0 1.602798,0.017139 2.147278,0.34222c0.583092,0.306789 0.931702,0.89352 0.931702,1.704224c0,0.810677 -0.34861,1.463684 -0.931702,1.818466c0,0 0.583092,-0.354782 0,0l0,0l0,0zm2.717308,2.357803c1.001526,0.371918 1.820244,1.038635 2.204048,1.590515c0.63533,0.92495 0.72731,1.7882 0.745476,3.458145l0,3.755783l-4.517113,0l0,-2.370354c0,-1.139771 0.109009,-2.827423 -0.727303,-3.708382c-0.657478,-0.678711 -1.659569,-0.840958 -3.300964,-0.840958l-4.80838,0l0,6.919693l-4.521095,0l0,-18.945766l10.387787,0c2.277855,0 3.936859,0.10112 5.413612,0.8941c1.419968,0.863251 2.313057,2.04586 2.313057,4.207119c-0.000572,3.023937 -2.004776,4.567051 -3.189125,5.040104c0,0 1.184349,-0.473053 0,0l0,0l0,0zm5.683868,-10.141323l15.016747,0l0,3.918041l-10.53598,0l0,3.444427l10.278778,0l0,3.865479l-10.278778,0l0,3.769501l10.53598,0.017136l0,3.931183l-15.016747,0l0,-18.945766l0,0l0,0l0,0zm-30.356537,8.74332l-5.814453,0l0,-4.824711l5.866692,0c1.624367,0 2.751938,0.666149 2.751938,2.322948c0,1.638512 -1.075333,2.501762 -2.804176,2.501762l0,0l0,0l0,0zm-10.295807,8.479378l-6.907944,-7.717247l6.907944,-7.47216l0,15.189407l0,0l0,0l0,0zm-17.839645,-2.22525l-11.062271,0l0,-3.769501l9.877922,0l0,-3.865479l-9.877922,0l0,-3.444427l11.2803,0l4.921364,5.521126l-5.139393,5.558281l0,0l0,0l0,0zm35.770149,-8.75589c0,5.262901 -3.902229,6.349533 -7.835114,6.349533l-5.614037,0l0,6.354675l-8.745232,0l-5.540222,-6.271835l-5.757675,6.271835l-17.822052,0l0,-18.945766l18.096275,0l5.535686,6.210133l5.723049,-6.210133l14.376862,0c3.570656,0 7.582458,0.994652 7.582458,6.241558c0,0 0,-5.246906 0,0l0,0l0,0zm0,0"/>
   </g>
  </g>
 </g>
</svg>
