<?xml version="1.0" encoding="UTF-8" standalone="no"?>
<svg
   xmlns:dc="http://purl.org/dc/elements/1.1/"
   xmlns:cc="http://creativecommons.org/ns#"
   xmlns:rdf="http://www.w3.org/1999/02/22-rdf-syntax-ns#"
   xmlns:svg="http://www.w3.org/2000/svg"
   xmlns="http://www.w3.org/2000/svg"
   xmlns:sodipodi="http://sodipodi.sourceforge.net/DTD/sodipodi-0.dtd"
   xmlns:inkscape="http://www.inkscape.org/namespaces/inkscape"
   height="100px"
   version="1.1"
   viewBox="0 0 160 100"
   width="160px"
   id="svg2"
   inkscape:version="0.48.4 r9939"
   sodipodi:docname="master_card.svg">
  <metadata
     id="metadata25">
    <rdf:RDF>
      <cc:Work
         rdf:about="">
        <dc:format>image/svg+xml</dc:format>
        <dc:type
           rdf:resource="http://purl.org/dc/dcmitype/StillImage" />
      </cc:Work>
    </rdf:RDF>
  </metadata>
  <sodipodi:namedview
     pagecolor="#ffffff"
     bordercolor="#666666"
     borderopacity="1"
     objecttolerance="10"
     gridtolerance="10"
     guidetolerance="10"
     inkscape:pageopacity="0"
     inkscape:pageshadow="2"
     inkscape:window-width="1858"
     inkscape:window-height="1058"
     id="namedview23"
     showgrid="false"
     inkscape:zoom="1.2639534"
     inkscape:cx="-145.85879"
     inkscape:cy="37.19097"
     inkscape:window-x="54"
     inkscape:window-y="-8"
     inkscape:window-maximized="1"
     inkscape:current-layer="Page-1" />
  <title
     id="title4" />
  <defs
     id="defs6" />
  <g
     fill="none"
     fill-rule="evenodd"
     id="Page-1"
     stroke="none"
     stroke-width="1">
    <g
       id="g3015">
      <path
         sodipodi:nodetypes="ccccc"
         d="m -0.04195806,1.0114669e-6 c 0,0 0.01973423,73.1757929885331 0.04895104,100.1048989885331 L 160.11477,100.04945 c 0,0 -0.11477,-73.792422 -0.11477,-100.07742105 z"
         id="Rectangle-1"
         inkscape:connector-curvature="0"
         style="fill:#265697" />
      <path
         d="m 149.54523,50.5 c 0.007,23.237765 -18.62563,42.079274 -41.6157,42.085447 -22.990537,0.0057 -41.630738,-18.826313 -41.636845,-42.064078 l 0,-0.02137 C 66.286577,27.262709 84.918792,8.4202514 107.90792,8.4140782 130.89846,8.407905 149.53913,27.240866 149.54523,50.478631 l 0,0.02137 c 0,0 0,-0.0076 0,0 l 0,0 0,0 z m 0,0"
         id="path2268"
         inkscape:connector-curvature="0"
         style="fill:#dfac16" />
      <path
         d="M 51.81255,8.425 C 28.958725,8.5717318 10.454295,27.365279 10.454295,50.5 c 0,23.224944 18.648658,42.074525 41.62651,42.074525 10.784229,0 20.614296,-4.154078 28.011275,-10.962626 -4.69e-4,0 -0.0014,-9.49e-4 -0.0033,-0.0019 l 0.0089,0 c 1.514631,-1.39514 2.927316,-2.900447 4.225839,-4.505475 l -8.528255,0 c -1.138792,-1.390391 -2.173758,-2.83919 -3.10349,-4.33405 l 14.708456,0 c 0.894497,-1.4469 1.70443,-2.949358 2.423222,-4.505475 l -19.560067,0 C 69.59674,66.820474 69.017949,65.343183 68.52372,63.844524 l 23.041276,0 c 1.388724,-4.193966 2.142281,-8.680922 2.142281,-13.345 0,-3.09229 -0.331677,-6.107179 -0.959328,-9.01 l -25.446175,0 c 0.315235,-1.49391 0.713154,-2.969776 1.187651,-4.42 l 23.049732,0 c -0.51537,-1.543296 -1.113893,-3.047179 -1.794631,-4.505 l -19.48349,0 C 70.963893,31.046872 71.760201,29.570531 72.64953,28.145 l 14.697651,0 C 86.36906,26.569888 85.286644,25.065056 84.116376,23.639525 l -8.194698,0 c 1.267047,-1.507207 2.661879,-2.926564 4.17604,-4.25 C 72.700269,12.580028 62.867383,8.425 52.080805,8.425 c -0.08973,0 -0.178523,-4.749e-4 -0.268255,0 0,0 0.08973,-4.749e-4 0,0 l 0,0 0,0 z m 0,0"
         id="path1350"
         inkscape:connector-curvature="0"
         style="fill:#bf3126" />
      <path
         d="m 67.04953,61.212374 0.554832,-3.807905 c -0.30302,0 -0.748859,0.131062 -1.14208,0.131062 -1.542819,0 -1.712886,-0.829106 -1.614698,-1.442151 l 1.246376,-7.769665 2.344765,0 0.566107,-4.212011 -2.210872,0 0.450067,-2.61933 -4.432081,0 c -0.09772,0.09877 -2.616308,14.731593 -2.616308,16.513268 0,2.63785 1.465302,3.812654 3.531476,3.79366 1.617987,-0.01377 2.877987,-0.466313 3.322416,-0.586928 0,0 -0.444429,0.120615 0,0 l 0,0 0,0 z m 0,0"
         id="path4157"
         inkscape:connector-curvature="0"
         style="fill:#ffffff" />
      <path
         d="m 68.453758,53.952235 c 0,6.330838 4.134229,7.835195 7.656309,7.835195 3.251007,0 4.681544,-0.734609 4.681544,-0.734609 l 0.780805,-4.320754 c 0,0 -2.47302,1.101201 -4.706443,1.101201 -4.75906,0 -3.925637,-3.58662 -3.925637,-3.58662 l 9.006979,0 c 0,0 0.581611,-2.902821 0.581611,-4.085698 0,-2.951732 -1.453557,-6.548324 -6.319731,-6.548324 -4.45651,9.49e-4 -7.755437,4.854497 -7.755437,10.339609 0,0 0,-5.485112 0,0 l 0,0 0,0 z m 7.772349,-6.327514 c 2.501208,0 2.039866,2.841089 2.039866,3.070921 l -4.920671,0 c 0,-0.293463 0.465101,-3.070921 2.880805,-3.070921 0,0 -2.415704,0 0,0 l 0,0 0,0 z m 0,0"
         id="path4155"
         inkscape:connector-curvature="0"
         style="fill:#ffffff" />
      <path
         d="m 104.29188,61.210475 0.79302,-4.883939 c 0,0 -2.1747,1.102151 -3.66725,1.102151 -3.143892,0 -4.404831,-2.426536 -4.404831,-5.033519 0,-5.28852 2.705101,-8.197989 5.716511,-8.197989 2.25832,0 4.0708,1.281648 4.0708,1.281648 l 0.72349,-4.74528 c 0,0 -2.68771,-1.099301 -4.99161,-1.099301 -5.116574,0 -10.09409,4.48648 -10.09409,12.912402 0,5.587207 2.687718,9.277346 7.97671,9.277346 1.49537,4.75e-4 3.87725,-0.613519 3.87725,-0.613519 l 0,0 0,0 0,0 z m 0,0"
         id="path4151"
         inkscape:connector-curvature="0"
         style="fill:#ffffff" />
      <path
         d="m 42.673087,43.68243 c -3.039127,0 -5.368859,0.987235 -5.368859,0.987235 l -0.643154,3.85919 c 0,0 1.922886,-0.789693 4.82953,-0.789693 1.650403,0 2.857785,0.18757 2.857785,1.543296 0,0.823408 -0.147986,1.127318 -0.147986,1.127318 0,0 -1.301812,-0.110167 -1.904564,-0.110167 -3.833087,0 -7.859732,1.653464 -7.859732,6.638547 0,3.928045 2.641678,4.82933 4.278927,4.82933 3.126979,0 4.474832,-2.050922 4.546711,-2.057095 l -0.146107,1.711872 3.902617,0 1.741074,-12.337347 c 0,-5.23391 -4.517114,-5.402486 -6.086242,-5.402486 l 0,0 0,0 0,0 z m 0.949463,10.045196 c 0.08456,0.753603 -0.467449,4.286089 -3.135906,4.286089 -1.37651,0 -1.734496,-1.062737 -1.734496,-1.691452 0,-1.22609 0.659127,-2.698157 3.906845,-2.698157 0.755436,9.5e-4 0.836242,0.08263 0.963557,0.10352 0,0 -0.127315,-0.02089 0,0 l 0,0 0,0 z m 0,0"
         id="path4149"
         inkscape:connector-curvature="0"
         style="fill:#ffffff" />
      <path
         d="m 52.907181,61.677263 c 0.998322,0 6.705436,0.256424 6.705436,-5.69595 0,-5.564888 -5.282886,-4.465587 -5.282886,-6.701229 0,-1.113073 0.861141,-1.46352 2.434967,-1.46352 0.624832,0 3.028792,0.200866 3.028792,0.200866 l 0.55906,-3.955586 c 0,4.74e-4 -1.555973,-0.351872 -4.089127,-0.351872 -3.278725,0 -6.606779,1.322961 -6.606779,5.84933 0,5.128966 5.549262,4.614218 5.549262,6.774832 0,1.442151 -1.550335,1.559441 -2.745034,1.559441 -2.067583,0 -3.929396,-0.717039 -3.935973,-0.682849 l -0.591006,3.915699 c 0.107114,0.03324 1.255302,0.550838 4.973288,0.550838 0,0 -3.717986,0 0,0 l 0,0 0,0 z m 0,0"
         id="path4145"
         inkscape:connector-curvature="0"
         style="fill:#ffffff" />
      <path
         d="m 141.0043,40.132849 -0.95605,5.996062 c 0,0 -1.66825,-2.32919 -4.27986,-2.32919 -4.06094,0 -7.44584,4.948994 -7.44584,10.635447 0,3.67067 1.80544,7.267262 5.49617,7.267262 2.65484,0 4.12672,-1.87095 4.12672,-1.87095 l -0.19497,1.597906 4.31087,0 3.38584,-21.30366 -4.44288,0.0071 0,0 0,0 0,0 z m -2.05819,11.691062 c 0,2.366229 -1.159,5.526899 -3.56202,5.526899 -1.59496,0 -2.34241,-1.353352 -2.34241,-3.477402 0,-3.473129 1.54329,-5.764805 3.4906,-5.764805 1.59544,-4.75e-4 2.41383,1.107375 2.41383,3.715308 0,0 0,-2.607933 0,0 l 0,0 0,0 z m 0,0"
         id="path4139"
         inkscape:connector-curvature="0"
         style="fill:#ffffff" />
      <path
         d="m 18.675302,61.447905 2.698054,-16.08352 0.39604,16.08352 3.053691,0 5.696309,-16.08352 -2.523289,16.08352 4.537316,0 3.494362,-21.332151 -7.016443,0 -4.369597,13.088576 -0.227383,-13.088576 -6.467718,0 -3.544631,21.332151 4.273289,0 0,0 0,0 0,0 z m 0,0"
         id="path4133"
         inkscape:connector-curvature="0"
         style="fill:#ffffff" />
      <path
         d="m 86.961477,61.477346 c 1.290067,-7.415419 1.529194,-13.436648 4.607785,-12.334497 0.538859,-2.870056 1.058926,-3.980279 1.647114,-5.194972 0,0 -0.275772,-0.05841 -0.854564,-0.05841 -1.984899,0 -3.455369,2.740894 -3.455369,2.740894 l 0.395101,-2.517234 -4.126712,0 -2.764765,17.364217 4.55141,0 0,0 0,0 0,0 z m 0,0"
         id="path4131"
         inkscape:connector-curvature="0"
         style="fill:#ffffff" />
      <path
         d="m 114.51855,43.68243 c -3.03913,0 -5.36886,0.987235 -5.36886,0.987235 l -0.64268,3.85919 c 0,0 1.92288,-0.789693 4.82953,-0.789693 1.6504,0 2.85684,0.18757 2.85684,1.543296 0,0.823408 -0.14704,1.127318 -0.14704,1.127318 0,0 -1.30182,-0.110167 -1.90504,-0.110167 -3.83262,0 -7.85926,1.653464 -7.85926,6.638547 0,3.928045 2.64121,4.82933 4.27846,4.82933 3.12698,0 4.47483,-2.050922 4.54624,-2.057095 l -0.14517,1.711872 3.90262,0 1.7406,-12.337347 c 4.7e-4,-5.23391 -4.51711,-5.402486 -6.08624,-5.402486 l 0,0 0,0 0,0 z m 0.95087,10.045196 c 0.0846,0.753603 -0.46792,4.286089 -3.13731,4.286089 -1.37651,0 -1.73356,-1.062737 -1.73356,-1.691452 0,-1.22609 0.65913,-2.698157 3.90638,-2.698157 0.75543,9.5e-4 0.83577,0.08263 0.96449,0.10352 0,0 -0.12872,-0.02089 0,0 l 0,0 0,0 z m 0,0"
         id="path4149_1_"
         inkscape:connector-curvature="0"
         style="fill:#ffffff" />
      <path
         d="m 124.17174,61.477346 c 1.29054,-7.415419 1.52966,-13.436648 4.60731,-12.334497 0.5398,-2.870056 1.06034,-3.980279 1.64806,-5.194972 0,0 -0.27577,-0.05841 -0.85457,-0.05841 -1.9849,0 -3.45537,2.740894 -3.45537,2.740894 l 0.39511,-2.517234 -4.12672,0 -2.76476,17.364217 4.55094,0 0,0 0,0 0,0 z m 0,0"
         id="path4131_1_"
         inkscape:connector-curvature="0"
         style="fill:#ffffff" />
    </g>
  </g>
</svg>
