<?xml version="1.0" encoding="UTF-8" standalone="no"?>
<!-- Created with Inkscape (http://www.inkscape.org/) -->

<svg
   xmlns:dc="http://purl.org/dc/elements/1.1/"
   xmlns:cc="http://creativecommons.org/ns#"
   xmlns:rdf="http://www.w3.org/1999/02/22-rdf-syntax-ns#"
   xmlns:svg="http://www.w3.org/2000/svg"
   xmlns="http://www.w3.org/2000/svg"
   xmlns:sodipodi="http://sodipodi.sourceforge.net/DTD/sodipodi-0.dtd"
   xmlns:inkscape="http://www.inkscape.org/namespaces/inkscape"
   xml:space="preserve"
   height="90"
   width="319"
   version="1.1"
   id="svg2"
   viewBox="0 0 280 90"
   inkscape:version="0.48.4 r9939"
   sodipodi:docname="paypal_logo.svg"><sodipodi:namedview
     pagecolor="#ffffff"
     bordercolor="#666666"
     borderopacity="1"
     objecttolerance="10"
     gridtolerance="10"
     guidetolerance="10"
     inkscape:pageopacity="0"
     inkscape:pageshadow="2"
     inkscape:window-width="834"
     inkscape:window-height="740"
     id="namedview61"
     showgrid="false"
     inkscape:zoom="1.9066666"
     inkscape:cx="139.15965"
     inkscape:cy="96.511546"
     inkscape:window-x="950"
     inkscape:window-y="84"
     inkscape:window-maximized="0"
     inkscape:current-layer="svg2" /><metadata
     id="metadata4"><rdf:RDF><cc:Work
         rdf:about=""><dc:format>image/svg+xml</dc:format><dc:type
           rdf:resource="http://purl.org/dc/dcmitype/StillImage" /><dc:title></dc:title></cc:Work></rdf:RDF></metadata><defs
     id="defs6"><clipPath
       id="clipPath16"><path
         d="M 0,51 157,51 157,0 0,0 0,51 z"
         id="path9"
         inkscape:connector-curvature="0" /></clipPath></defs><g
     id="g21"
     transform="matrix(2.7685362,0,0,-2.7685362,190.72913,22.869398)"
     style="fill:#9fe1ff;fill-opacity:1"><path
       style="fill:#9fe1ff;fill-rule:nonzero;fill-opacity:1"
       inkscape:connector-curvature="0"
       id="path23"
       d="m 0,0 c -0.424,-2.784 -2.55,-2.784 -4.607,-2.784 h -1.17 l 0.821,5.198 c 0.049,0.314 0.32,0.545 0.638,0.545 h 0.537 c 1.4,0 2.722,0 3.404,-0.797 C 0.031,1.685 0.154,0.977 0,0 m -0.895,7.264 -7.756,0 c -0.531,0 -0.982,-0.386 -1.065,-0.91 l -3.136,-19.888 c -0.062,-0.392 0.242,-0.747 0.638,-0.747 h 3.98 c 0.371,0 0.687,0.27 0.745,0.636 l 0.89,5.639 c 0.082,0.524 0.534,0.91 1.064,0.91 h 2.454 c 5.109,0 8.058,2.472 8.828,7.373 C 6.094,2.419 5.761,4.103 4.758,5.282 3.655,6.578 1.7,7.264 -0.895,7.264" /></g><g
     id="g25"
     transform="matrix(2.7685362,0,0,-2.7685362,37.574544,22.869398)"
     style="fill:#ffffff"><path
       style="fill:#ffffff;fill-rule:nonzero"
       inkscape:connector-curvature="0"
       id="path27"
       d="m 0,0 c -0.424,-2.784 -2.55,-2.784 -4.607,-2.784 h -1.17 l 0.821,5.198 c 0.049,0.314 0.32,0.545 0.638,0.545 h 0.537 c 1.4,0 2.722,0 3.404,-0.797 C 0.031,1.685 0.154,0.977 0,0 m -0.895,7.264 -7.756,0 c -0.531,0 -0.982,-0.386 -1.065,-0.91 l -3.136,-19.888 c -0.062,-0.392 0.241,-0.747 0.638,-0.747 h 3.704 c 0.53,0 0.981,0.386 1.064,0.909 l 0.847,5.366 c 0.082,0.524 0.534,0.91 1.064,0.91 h 2.454 c 5.109,0 8.058,2.472 8.828,7.373 C 6.094,2.419 5.761,4.103 4.758,5.282 3.655,6.578 1.7,7.264 -0.895,7.264" /></g><g
     id="g29"
     transform="matrix(2.7685362,0,0,-2.7685362,84.947789,42.636193)"
     style="fill:#ffffff"><path
       style="fill:#ffffff;fill-rule:nonzero"
       inkscape:connector-curvature="0"
       id="path31"
       d="m 0,0 c -0.359,-2.122 -2.043,-3.547 -4.192,-3.547 -1.077,0 -1.94,0.347 -2.494,1.003 -0.549,0.65 -0.756,1.577 -0.582,2.608 0.334,2.104 2.046,3.574 4.162,3.574 1.055,0 1.911,-0.35 2.476,-1.012 C -0.061,1.959 0.163,1.027 0,0 m 5.176,7.229 -3.714,0 C 1.144,7.229 0.873,6.998 0.823,6.683 L 0.66,5.645 0.401,6.021 c -0.805,1.167 -2.598,1.558 -4.388,1.558 -4.103,0 -7.608,-3.11 -8.29,-7.471 -0.355,-2.176 0.149,-4.255 1.383,-5.706 1.133,-1.333 2.75,-1.888 4.677,-1.888 3.308,0 5.142,2.124 5.142,2.124 L -1.241,-6.394 C -1.303,-6.786 -1,-7.141 -0.602,-7.141 h 3.344 c 0.531,0 0.982,0.385 1.065,0.909 L 5.815,6.482 C 5.877,6.874 5.573,7.229 5.176,7.229" /></g><g
     id="g33"
     transform="matrix(2.7685362,0,0,-2.7685362,238.10266,42.636193)"
     style="fill:#9fe1ff;fill-opacity:1"><path
       style="fill:#9fe1ff;fill-rule:nonzero;fill-opacity:1"
       inkscape:connector-curvature="0"
       id="path35"
       d="m 0,0 c -0.359,-2.122 -2.043,-3.547 -4.192,-3.547 -1.077,0 -1.94,0.347 -2.494,1.003 -0.55,0.65 -0.756,1.577 -0.582,2.608 0.334,2.104 2.046,3.574 4.162,3.574 1.055,0 1.911,-0.35 2.476,-1.012 C -0.061,1.959 0.163,1.027 0,0 m 5.176,7.229 -3.714,0 C 1.144,7.229 0.873,6.998 0.823,6.683 L 0.66,5.645 0.4,6.021 c -0.804,1.167 -2.597,1.558 -4.387,1.558 -4.103,0 -7.608,-3.11 -8.29,-7.471 -0.355,-2.176 0.149,-4.255 1.383,-5.706 1.133,-1.333 2.75,-1.888 4.677,-1.888 3.308,0 5.142,2.124 5.142,2.124 L -1.241,-6.394 C -1.303,-6.786 -1,-7.141 -0.602,-7.141 h 3.344 c 0.531,0 0.982,0.385 1.065,0.909 L 5.815,6.482 C 5.877,6.874 5.573,7.229 5.176,7.229" /></g><g
     id="g37"
     transform="matrix(2.7685362,0,0,-2.7685362,154.04131,22.622722)"
     style="fill:#ffffff"><path
       style="fill:#ffffff;fill-rule:nonzero"
       inkscape:connector-curvature="0"
       id="path39"
       d="M 0,0 -3.733,0 C -4.09,0 -4.424,-0.177 -4.624,-0.473 l -5.15,-7.584 -2.182,7.288 C -12.093,-0.313 -12.513,0 -12.989,0 h -3.669 c -0.443,0 -0.755,-0.436 -0.612,-0.855 l 4.11,-12.066 -3.866,-5.455 c -0.303,-0.428 0.003,-1.02 0.528,-1.02 h 3.729 c 0.353,0 0.684,0.173 0.886,0.463 L 0.531,-1.015 C 0.828,-0.586 0.522,0 0,0" /></g><g
     id="g41"
     transform="matrix(2.7685362,0,0,-2.7685362,264.5516,4.2717561)"
     style="fill:#9fe1ff;fill-opacity:1"><path
       style="fill:#9fe1ff;fill-rule:nonzero;fill-opacity:1"
       inkscape:connector-curvature="0"
       id="path43"
       d="m 0,0 -3.183,-20.252 c -0.062,-0.392 0.241,-0.747 0.638,-0.747 h 3.202 c 0.53,0 0.982,0.386 1.064,0.91 L 4.86,-0.201 C 4.922,0.191 4.619,0.546 4.221,0.546 H 0.639 C 0.32,0.546 0.049,0.315 0,0" /></g></svg>
